<svg width="359" height="359" fill="none" xmlns="http://www.w3.org/2000/svg">
  <path d="M0 359C0 160.719 80.443 0 179.5 0S359 160.719 359 359H0Z" fill="#9B8579"/>
  <path d="M89.75 59.833c8.26 0 14.958-6.697 14.958-14.958s-6.697-14.959-14.959-14.959c-8.26 0-14.958 6.698-14.958 14.959s6.697 14.958 14.958 14.958ZM269.249 59.833c8.262 0 14.959-6.697 14.959-14.958s-6.697-14.959-14.959-14.959c-8.261 0-14.958 6.698-14.958 14.959s6.697 14.958 14.958 14.958Z" fill="#9B8579"/>
  <path d="M127.145 74.792c4.131 0 7.479-6.697 7.479-14.959 0-8.26-3.348-14.958-7.479-14.958-4.13 0-7.479 6.697-7.479 14.958 0 8.262 3.349 14.959 7.479 14.959ZM231.854 74.792c4.131 0 7.479-6.697 7.479-14.959 0-8.26-3.348-14.958-7.479-14.958-4.13 0-7.479 6.697-7.479 14.958 0 8.262 3.349 14.959 7.479 14.959ZM179.999 61.828c-15.124 0-29.085 9.473-39.888 23.434a20.967 20.967 0 0 0 0 25.928c10.969 13.961 24.764 23.435 39.888 23.435 15.125 0 29.086-9.474 39.889-23.435a20.967 20.967 0 0 0 0-25.928c-10.803-13.96-24.764-23.434-39.889-23.434Z" fill="#000"/>
  <path opacity=".5" d="M119.666 89.75h-89.75M119.666 89.75l-89.75 14.958M329.084 89.75h-89.75M329.084 104.708l-89.75-14.958" stroke="#584840" stroke-width="4.986" stroke-miterlimit="10"/>
  <path opacity=".1" d="M315.287 123.988C282.379 48.033 233.681 0 179.499 0 125.316 0 76.619 48.033 43.71 123.988c-22.936 53.185 14.626 113.683 72.465 115.345h3.49c5.984 0 11.967-.498 17.784-1.329 27.756-4.155 56.177-4.155 84.099 0 5.817.831 11.801 1.329 17.784 1.329h3.49c57.839-1.662 95.401-62.16 72.465-115.345Zm-135.788 70.47c-33.075 0-74.792-3.49-74.792-44.875 0-41.384 41.717-89.75 74.792-89.75 33.074 0 74.791 48.366 74.791 89.75 0 41.385-41.717 44.875-74.791 44.875Z" fill="#000"/>
  <g opacity=".5" stroke="#584840" stroke-width="4.986" stroke-miterlimit="10">
    <path d="M179.499 134.625v14.958M149.583 164.542l29.917-14.959M209.416 164.542l-29.917-14.959"/>
  </g>
  <path d="M194.458 166.958v-7.479L179.499 152l-14.958 7.479v7.479a7.449 7.449 0 0 0 7.479 7.48 7.449 7.449 0 0 0 7.479-7.48 7.449 7.449 0 0 0 7.479 7.48 7.449 7.449 0 0 0 7.48-7.48Z" fill="#fff"/>
</svg>